<svg xmlns="http://www.w3.org/2000/svg" width="156.754" height="156.293" viewBox="0 0 156.754 156.293"><g transform="translate(-5984.708 -4760.595)"><g transform="translate(5984.708 4760.595)"><path d="M6033.416,4812.177A8.971,8.971,0,0,1,6036,4810.3a6.916,6.916,0,0,1,2.654-.66,5.887,5.887,0,0,1,2.573.493,7.541,7.541,0,0,1,2.321,1.6,8.689,8.689,0,0,1,1.65,2.256,5.766,5.766,0,0,1,.617,2.655,7.165,7.165,0,0,1-.736,2.99,12.032,12.032,0,0,1-2.432,3.284l-5.657,5.7-16.466-16.352,4.338-4.368a20.48,20.48,0,0,1,2.554-2.228,6.807,6.807,0,0,1,2.226-1.107,3.408,3.408,0,0,1,2.017.067,5.3,5.3,0,0,1,1.925,1.3,3.773,3.773,0,0,1,1.009,1.554,3.714,3.714,0,0,1,.133,1.579,5.169,5.169,0,0,1-.485,1.58,10.855,10.855,0,0,1-.89,1.519Zm6.978,12.2a16.921,16.921,0,0,0,1.9-2.279,7.461,7.461,0,0,0,1.154-2.512,5.317,5.317,0,0,0-.052-2.667,6.243,6.243,0,0,0-1.737-2.725,7.355,7.355,0,0,0-2.481-1.72,5.274,5.274,0,0,0-2.359-.365,5.332,5.332,0,0,0-2.132.647,7.954,7.954,0,0,0-1.8,1.362,7.8,7.8,0,0,0-1.232,1.583,5.607,5.607,0,0,0-.634,1.6,3.377,3.377,0,0,0-.006,1.483,2.458,2.458,0,0,0,.676,1.2l6.574,6.529Zm-8.593-16.657a5.1,5.1,0,0,0-1.327-.956,3.25,3.25,0,0,0-1.559-.335,4.355,4.355,0,0,0-1.812.518,8.4,8.4,0,0,0-2.085,1.608l-2.4,2.419,7.558,7.506a10.16,10.16,0,0,1,.568-2.242q.4-1.047.825-2.009t.794-1.827a6.655,6.655,0,0,0,.485-1.666,3.64,3.64,0,0,0-.1-1.547A3.476,3.476,0,0,0,6031.8,4807.723Z" transform="translate(-6003.37 -4783.439)" fill="#e05555"/><path d="M6085.819,4783.692a12.406,12.406,0,0,1,1.733,1.276q.866.753,1.839,1.609t2.052,1.731a18.974,18.974,0,0,0,2.351,1.626,20.384,20.384,0,0,0,2.757,1.345,14.074,14.074,0,0,0,3.254.846l-.162.557a25.221,25.221,0,0,1-3.874-.411,16.133,16.133,0,0,1-3.342-1.021,18.445,18.445,0,0,1-3.083-1.7,31.191,31.191,0,0,1-3.085-2.417,11.2,11.2,0,0,0-2.219-1.583,5.93,5.93,0,0,0-2.111-.647,7.119,7.119,0,0,0-2.243.141,20.347,20.347,0,0,0-2.615.784l-1.339.553,4.071,9.876-2.2.909-8.844-21.455,5.58-2.3q.809-.334,1.811-.714a15.708,15.708,0,0,1,2.075-.627,11.206,11.206,0,0,1,2.185-.28,6,6,0,0,1,2.116.3,5.1,5.1,0,0,1,1.853,1.13,6.228,6.228,0,0,1,1.435,2.215,5.068,5.068,0,0,1,.4,2.383,5.741,5.741,0,0,1-.649,2.227,7.265,7.265,0,0,1-1.479,1.915,9.386,9.386,0,0,1-2.055,1.468,5.812,5.812,0,0,1,1.885-.336A3.716,3.716,0,0,1,6085.819,4783.692Zm-10.857.82a2,2,0,0,0,.379.643.737.737,0,0,0,.437.229,1.159,1.159,0,0,0,.54-.076c.2-.07.418-.156.661-.256a21.6,21.6,0,0,0,4.467-2.348,7.815,7.815,0,0,0,2.192-2.242,3.638,3.638,0,0,0,.546-2.117,6.5,6.5,0,0,0-.471-1.977,5.619,5.619,0,0,0-1.7-2.432,4.576,4.576,0,0,0-2.2-.9,6.761,6.761,0,0,0-2.476.172,18.152,18.152,0,0,0-2.543.836q-.977.4-1.86.832t-1.625.769Z" transform="translate(-6028.498 -4766.426)" fill="#e05555"/><path d="M6134.124,4782.957q2.958-.059,5.492-.3t4.437-.512q2.2-.331,4.044-.753v2.384l-16.355,0,.006-23.175,16.355,0v2.383q-1.841-.423-4.044-.755-1.9-.3-4.436-.545t-5.492-.273l0,10.593a3.543,3.543,0,0,1,1.269-1.434,3.932,3.932,0,0,1,2.2-.557,5.219,5.219,0,0,1,.769.06c.271.041.549.09.83.151q.814.182,1.433.377c.413.132.785.252,1.117.363s.634.2.905.272a3.1,3.1,0,0,0,.77.106,2.251,2.251,0,0,0,.905-.2,4.823,4.823,0,0,0,1.026-.648l.331.271a8.883,8.883,0,0,1-1.781,1.508,4.134,4.134,0,0,1-2.322.694,3.3,3.3,0,0,1-1.207-.211q-1.449-.424-2.444-.71a6.429,6.429,0,0,0-1.751-.287,2.119,2.119,0,0,0-1.388.5,1.8,1.8,0,0,0-.664,1.313Z" transform="translate(-6061.312 -4760.595)" fill="#e05555"/><path d="M6189.794,4789.427a.635.635,0,0,0-.232-.494,1.825,1.825,0,0,0-.478-.3,2.847,2.847,0,0,0-.564-.177c-.192-.038-.37-.07-.533-.1a3.919,3.919,0,0,0-.555-.008l-3.3.126a6.662,6.662,0,0,1-2.94-.341,1.91,1.91,0,0,1-1.24-2.009q-.729.935-1.32,1.7t-1.111,1.444q-.521.68-.963,1.327t-.914,1.365l-2.5-1.07,18.479-17.292.333.143.242,25.319-2.33-1Zm-.054-12.894q-1.656,1.489-3.148,2.9t-2.712,2.612q-1.222,1.2-2.113,2.132t-1.348,1.458a.408.408,0,0,0,.008.479.762.762,0,0,0,.447.373,1.307,1.307,0,0,0,.452.1q.258.011.791-.006t1.5-.062q.97-.043,2.6-.1a4.3,4.3,0,0,1,1.91.294,3.226,3.226,0,0,1,1.68,1.9Z" transform="translate(-6082.884 -4767.369)" fill="#e05555"/><path d="M6234.971,4818.19a12.345,12.345,0,0,1-.6,2.067q-.409,1.072-.876,2.28t-.919,2.523a19.04,19.04,0,0,0-.716,2.768,20.333,20.333,0,0,0-.311,3.051,14.009,14.009,0,0,0,.328,3.347l-.578.039a25.161,25.161,0,0,1-.95-3.777,16.072,16.072,0,0,1-.194-3.489,18.535,18.535,0,0,1,.533-3.481,31.037,31.037,0,0,1,1.205-3.729,15.8,15.8,0,0,0,.629-1.992,11.127,11.127,0,0,0,.318-2.2,7.119,7.119,0,0,0-.229-2.146,4.329,4.329,0,0,0-1.011-1.837,3.319,3.319,0,0,0-.785-.631,2.362,2.362,0,0,0-1.012-.3l-2.021-.194-6.756,6.206-1.612-1.755,17.068-15.678,1.613,1.755-9.356,8.594q3.623.154,6.844.27t5.673.2q2.859.079,5.311.162l1.857,2.022-16.344-1.377a6.547,6.547,0,0,1,1.321,1.082,6.352,6.352,0,0,1,1.5,2.818A7.929,7.929,0,0,1,6234.971,4818.19Z" transform="translate(-6106.99 -4780.743)" fill="#e05555"/><path d="M6261.718,4899.138l21.918-1.879q-.336-2.152-.693-3.848t-.639-2.854q-.359-1.362-.687-2.363l2.4-.207,1.763,20.565-2.405.206q.152-1.043.277-2.416.081-1.188.149-2.859t.036-3.82l-21.918,1.879Z" transform="translate(-6129.031 -4826.967)" fill="#e05555"/><path d="M6273.09,4965.409l-22.011-7.255.746-2.265,11.034,3.638a.827.827,0,0,0,.592-.012.888.888,0,0,0,.438-.412,1,1,0,0,1,.071-.167,1.064,1.064,0,0,0,.071-.168,3.778,3.778,0,0,0,.168-.992,14.009,14.009,0,0,0-.029-1.455q-.056-.892-.17-2.232t-.283-3.334a4.061,4.061,0,0,1,.147-1.7,2.281,2.281,0,0,1,1.607-1.5l-9.831-3.24.746-2.264,22.011,7.254-.746,2.265-11.034-3.637a.716.716,0,0,0-.449.011.489.489,0,0,0-.333.335,2.925,2.925,0,0,0-.131.735,10.624,10.624,0,0,0,.028,1.265q.056.844.184,2.285t.347,3.768a3.655,3.655,0,0,1-.148,1.509,3.407,3.407,0,0,1-.778,1.3,3.079,3.079,0,0,1-1.247.8l9.744,3.212Z" transform="translate(-6123.488 -4855.133)" fill="#e05555"/><path d="M6233.592,4986.729q-1.86,2.3-3.31,4.393t-2.468,3.722q-1.165,1.9-2.03,3.577l-1.822-1.537,10.544-12.5,17.716,14.941-10.544,12.5-1.822-1.537q1.51-1.135,3.184-2.6,1.455-1.26,3.274-3.041t3.749-4.023l-8.1-6.829a3.546,3.546,0,0,1,.279,1.893,3.936,3.936,0,0,1-.994,2.044,5.338,5.338,0,0,1-.542.55q-.31.272-.651.537-.663.506-1.212.852t-1,.62c-.3.183-.562.355-.791.518a3.047,3.047,0,0,0-.576.52,2.253,2.253,0,0,0-.435.818,4.812,4.812,0,0,0-.165,1.2l-.422.078a8.927,8.927,0,0,1-.006-2.333,4.139,4.139,0,0,1,.968-2.224,3.319,3.319,0,0,1,.939-.787q1.258-.836,2.118-1.412a6.439,6.439,0,0,0,1.348-1.153,2.116,2.116,0,0,0,.514-1.382,1.8,1.8,0,0,0-.576-1.354Z" transform="translate(-6109.36 -4877.188)" fill="#e05555"/><path d="M6170.838,5045.886a8.983,8.983,0,0,1-3.184.263,6.92,6.92,0,0,1-2.611-.812,5.881,5.881,0,0,1-1.945-1.756,7.509,7.509,0,0,1-1.152-2.575,8.664,8.664,0,0,1-.242-2.785,5.751,5.751,0,0,1,.85-2.589,7.149,7.149,0,0,1,2.18-2.174,12.008,12.008,0,0,1,3.782-1.546l7.791-1.936,5.6,22.521-5.975,1.484a20.422,20.422,0,0,1-3.338.581,6.816,6.816,0,0,1-2.477-.208,3.416,3.416,0,0,1-1.69-1.1,5.312,5.312,0,0,1-.974-2.105,3.778,3.778,0,0,1-.056-1.853,3.728,3.728,0,0,1,.706-1.418,5.161,5.161,0,0,1,1.235-1.1,10.714,10.714,0,0,1,1.549-.836Zm-.928,4.647a5.094,5.094,0,0,0,.637,1.5,3.251,3.251,0,0,0,1.159,1.1,4.36,4.36,0,0,0,1.818.5,8.392,8.392,0,0,0,2.617-.293l3.309-.822-2.568-10.338a10.132,10.132,0,0,1-1.649,1.622q-.885.687-1.748,1.29t-1.626,1.151a6.572,6.572,0,0,0-1.278,1.172,3.64,3.64,0,0,0-.716,1.375A3.48,3.48,0,0,0,6169.91,5050.533Zm1.292-18.7a16.882,16.882,0,0,0-2.808.961,7.449,7.449,0,0,0-2.29,1.549,5.293,5.293,0,0,0-1.339,2.307,6.24,6.24,0,0,0,.072,3.231,7.367,7.367,0,0,0,1.23,2.758,5.186,5.186,0,0,0,3.986,2.087,7.964,7.964,0,0,0,2.244-.231,7.707,7.707,0,0,0,1.875-.715,5.548,5.548,0,0,0,1.374-1.041,3.351,3.351,0,0,0,.774-1.266,2.446,2.446,0,0,0,.046-1.378l-2.234-8.992Z" transform="translate(-6076.911 -4900.943)" fill="#e05555"/><path d="M6105.689,5056.8q-.155-3.3-.259-5.625t-.159-3.927q-.056-1.6-.079-2.567t-.021-1.533c0-.377.013-.656.031-.836s.041-.34.065-.479a9.056,9.056,0,0,1,1.406-3.682,7.981,7.981,0,0,1,2.64-2.453,9.809,9.809,0,0,1,3.653-1.183,15.17,15.17,0,0,1,4.445.126,11.688,11.688,0,0,1,3.88,1.317,9.738,9.738,0,0,1,2.748,2.245,7.586,7.586,0,0,1,1.5,2.864,7.337,7.337,0,0,1,.161,3.178,9.495,9.495,0,0,1-.705,2.314,8.495,8.495,0,0,1-1.435,2.194,11.666,11.666,0,0,1-2.281,1.946,14.075,14.075,0,0,1-3.208,1.548q-.858.377-.922.765a.565.565,0,0,0,.06.377l5.005,6.153-3.542-.588-3.843-4.859a1.043,1.043,0,0,1-.239-.774.66.66,0,0,1,.235-.4,1.74,1.74,0,0,1,.459-.276l2.455-1.152a10.5,10.5,0,0,0,3.753-3.079,8.861,8.861,0,0,0,1.6-3.742,8.443,8.443,0,0,0-.069-3.177,8.839,8.839,0,0,0-1.133-2.85,7.655,7.655,0,0,0-1.982-2.149,6.04,6.04,0,0,0-2.616-1.107,8.865,8.865,0,0,0-3.066.041,9.236,9.236,0,0,0-2.929,1.059,8.007,8.007,0,0,0-2.319,1.986,6.057,6.057,0,0,0-1.233,2.824c-.013.079-.024.179-.034.3s-.014.355-.009.7.012.848.025,1.5.038,1.561.069,2.719.078,2.6.137,4.336.126,3.849.2,6.35Z" transform="translate(-6047.47 -4903.254)" fill="#e05555"/><path d="M6061.144,5028.789a8.971,8.971,0,0,1-2.377-2.134,6.914,6.914,0,0,1-1.2-2.456,5.891,5.891,0,0,1-.06-2.619,7.526,7.526,0,0,1,1.079-2.605,8.65,8.65,0,0,1,1.858-2.089,5.747,5.747,0,0,1,2.464-1.163,7.165,7.165,0,0,1,3.078.091,12.024,12.024,0,0,1,3.723,1.686l6.759,4.332-12.521,19.538-5.183-3.321a20.5,20.5,0,0,1-2.715-2.026,6.809,6.809,0,0,1-1.55-1.943,3.4,3.4,0,0,1-.358-1.985,5.269,5.269,0,0,1,.86-2.154,3.534,3.534,0,0,1,2.822-1.776,5.215,5.215,0,0,1,1.647.142,10.791,10.791,0,0,1,1.672.552Zm-4.013,2.517a5.084,5.084,0,0,0-.656,1.5,3.253,3.253,0,0,0,0,1.595,4.339,4.339,0,0,0,.888,1.662,8.379,8.379,0,0,0,2.01,1.7l2.872,1.84,5.747-8.97a10.111,10.111,0,0,1-2.312-.083q-1.107-.173-2.137-.385t-1.954-.391a6.606,6.606,0,0,0-1.73-.123,3.632,3.632,0,0,0-1.491.425A3.469,3.469,0,0,0,6057.13,5031.306ZM6071.6,5019.4a16.953,16.953,0,0,0-2.629-1.379,7.469,7.469,0,0,0-2.7-.6,5.312,5.312,0,0,0-2.6.612,6.226,6.226,0,0,0-2.3,2.272,7.354,7.354,0,0,0-1.16,2.787,5.183,5.183,0,0,0,1.222,4.331,7.958,7.958,0,0,0,1.709,1.472,7.772,7.772,0,0,0,1.807.871,5.54,5.54,0,0,0,1.7.283,3.392,3.392,0,0,0,1.451-.307,2.454,2.454,0,0,0,1.033-.914l5-7.8Z" transform="translate(-6020.866 -4893.452)" fill="#e05555"/><path d="M6020.633,4991.97a9,9,0,0,1-1.4-2.874,6.928,6.928,0,0,1-.187-2.729,5.9,5.9,0,0,1,.934-2.448,7.55,7.55,0,0,1,1.983-2.005,8.662,8.662,0,0,1,2.51-1.232,5.766,5.766,0,0,1,2.722-.145,7.172,7.172,0,0,1,2.815,1.247,12,12,0,0,1,2.809,2.966l4.623,6.563-18.973,13.362-3.544-5.034a20.463,20.463,0,0,1-1.749-2.9,6.812,6.812,0,0,1-.7-2.385,3.419,3.419,0,0,1,.418-1.974,5.291,5.291,0,0,1,1.611-1.67,3.775,3.775,0,0,1,1.706-.721,3.726,3.726,0,0,1,1.578.144,5.177,5.177,0,0,1,1.472.753,10.841,10.841,0,0,1,1.34,1.142Zm-4.667.814a5.078,5.078,0,0,0-1.172,1.139,3.249,3.249,0,0,0-.6,1.477,4.359,4.359,0,0,0,.195,1.874,8.359,8.359,0,0,0,1.219,2.334l1.963,2.788,8.709-6.133a10.127,10.127,0,0,1-2.109-.95q-.96-.579-1.833-1.163t-1.66-1.1a6.67,6.67,0,0,0-1.556-.768,3.651,3.651,0,0,0-1.542-.17A3.472,3.472,0,0,0,6015.966,4992.784Zm17.9-5.557a16.9,16.9,0,0,0-1.913-2.271,7.471,7.471,0,0,0-2.271-1.575,5.3,5.3,0,0,0-2.636-.413,6.219,6.219,0,0,0-2.986,1.235,7.363,7.363,0,0,0-2.127,2.143,5.193,5.193,0,0,0-.5,4.471,7.953,7.953,0,0,0,1.026,2.009,7.719,7.719,0,0,0,1.345,1.489,5.552,5.552,0,0,0,1.467.9,3.373,3.373,0,0,0,1.459.264,2.456,2.456,0,0,0,1.3-.456l7.574-5.334Z" transform="translate(-5999.17 -4875.134)" fill="#e05555"/><path d="M6013.9,4946.441q-.751-2.862-1.5-5.243t-1.41-4.114q-.737-2.026-1.439-3.657l2.316-.559,3.762,15.608L5993.1,4953.9l-.559-2.317Z" transform="translate(-5988.79 -4850.35)" fill="#e05555"/><path d="M6007.185,4900.432q.344-2.938.451-5.482t.1-4.465q-.029-2.227-.2-4.109l2.362.326-2.233,16.2-22.959-3.164,2.233-16.2,2.36.325q-.669,1.767-1.3,3.9-.557,1.843-1.143,4.321t-1.02,5.4l10.494,1.446a3.546,3.546,0,0,1-1.247-1.451,3.934,3.934,0,0,1-.253-2.259,5.414,5.414,0,0,1,.165-.754q.117-.4.264-.8.29-.783.569-1.369t.51-1.057q.233-.471.394-.86a3.053,3.053,0,0,0,.209-.748,2.247,2.247,0,0,0-.071-.924,4.834,4.834,0,0,0-.5-1.1l.313-.292a8.9,8.9,0,0,1,1.252,1.97,4.139,4.139,0,0,1,.37,2.4,3.313,3.313,0,0,1-.374,1.167q-.616,1.378-1.037,2.325a6.445,6.445,0,0,0-.523,1.695,2.12,2.12,0,0,0,.3,1.443,1.8,1.8,0,0,0,1.21.837Z" transform="translate(-5984.708 -4824.649)" fill="#e05555"/></g><g transform="translate(6058.828 4834.056)"><g transform="translate(3.827 0)"><path d="M6149,4913.959h0a15.549,15.549,0,0,1-.743,4.753l-.037.116-.037-.116a15.578,15.578,0,0,1-.743-4.753H6149Z" transform="translate(-6147.437 -4913.959)" fill="#e05555"/><path d="M6147.437,4928.995h0a15.573,15.573,0,0,1,.743-4.753l.037-.117.037.117a15.543,15.543,0,0,1,.743,4.753h-1.561Z" transform="translate(-6147.437 -4919.256)" fill="#e05555"/></g><g transform="translate(0 1.759)"><path d="M6139.448,4925.884h0a15.559,15.559,0,0,1,4.488-1.733l.119-.026-.082.09a15.562,15.562,0,0,1-3.745,3.02h0Z" transform="translate(-6139.448 -4921.015)" fill="#e05555"/><path d="M6153.673,4918.983h0a15.564,15.564,0,0,1-4.488,1.733l-.12.026.082-.09a15.59,15.59,0,0,1,3.745-3.021h0Z" transform="translate(-6144.459 -4917.631)" fill="#e05555"/></g><g transform="translate(0 1.759)"><path d="M6140.229,4917.631h0a15.587,15.587,0,0,1,3.745,3.021l.082.09-.119-.026a15.559,15.559,0,0,1-4.488-1.733h0Z" transform="translate(-6139.448 -4917.631)" fill="#e05555"/><path d="M6152.893,4927.235h0a15.564,15.564,0,0,1-3.745-3.02l-.082-.09.12.026a15.564,15.564,0,0,1,4.488,1.733h0Z" transform="translate(-6144.459 -4921.015)" fill="#e05555"/></g></g></g></svg>