<svg xmlns="http://www.w3.org/2000/svg" width="165.297" height="49.114" viewBox="0 0 165.297 49.114"><g transform="translate(146.512)"><g transform="translate(7.782)"><path d="M51.569,0h0a31.283,31.283,0,0,1-1.531,9.7l-.064.223L49.911,9.7A32.256,32.256,0,0,1,48.38,0h3.189Z" transform="translate(-48.38)" fill="#e05555"/><path d="M48.38,13.038h0a31.283,31.283,0,0,1,1.531-9.7l.064-.223.064.223a32.256,32.256,0,0,1,1.531,9.7H48.38Z" transform="translate(-48.38 6.83)" fill="#e05555"/></g><g transform="translate(0 3.604)"><path d="M45.94,6.714h0a31.349,31.349,0,0,1,9.153-3.54l.255-.064-.159.191a31.085,31.085,0,0,1-7.654,6.155h0Z" transform="translate(-45.94 3.205)" fill="#e05555"/><path d="M58.288,3.873h0a31.349,31.349,0,0,1-9.153,3.54l-.255.064.159-.191A31.085,31.085,0,0,1,56.694,1.13h0Z" transform="translate(-39.504 -1.13)" fill="#e05555"/></g><g transform="translate(0 3.604)"><path d="M47.535,1.13h0a33.124,33.124,0,0,1,7.654,6.155l.159.191-.255-.064a31.349,31.349,0,0,1-9.153-3.54h0Z" transform="translate(-45.94 -1.13)" fill="#e05555"/><path d="M56.694,9.457h0A33.124,33.124,0,0,1,49.039,3.3L48.88,3.11l.255.064a31.349,31.349,0,0,1,9.153,3.54h0Z" transform="translate(-39.504 3.205)" fill="#e05555"/></g></g><g transform="translate(0 1.786)"><path d="M34.029,7.162a20.832,20.832,0,0,0-7.335-4.879A25.332,25.332,0,0,0,17.19.56H0V47.888H17.19A24.464,24.464,0,0,0,26.6,46.134a21.788,21.788,0,0,0,7.367-4.911,22.516,22.516,0,0,0,4.784-7.495,26.221,26.221,0,0,0,1.69-9.5,26.32,26.32,0,0,0-1.658-9.568A22.441,22.441,0,0,0,34.029,7.162Zm-.67,25.9a18.444,18.444,0,0,1-3.253,7.112,15.915,15.915,0,0,1-6.187,4.784,23.266,23.266,0,0,1-9.663,1.754H4.879V1.74h9.376a22.678,22.678,0,0,1,9.95,1.914,15.945,15.945,0,0,1,6.155,5.071,19.225,19.225,0,0,1,3.125,7.24,40.454,40.454,0,0,1,.861,8.388A39.757,39.757,0,0,1,33.359,33.058Z" transform="translate(0 -0.56)" fill="#e05555"/><rect width="4.879" height="47.328" transform="translate(48.731)" fill="#e05555"/><path d="M57.08.56H51.722l4.242,12.247a13.893,13.893,0,0,1,.446,7.654,21.091,21.091,0,0,1-3,7.208l-10.237,15.4a1.875,1.875,0,0,1-1.531.734,2.306,2.306,0,0,1-1.18-.351,1.814,1.814,0,0,1-.8-.957L25.284.56H19.32L36.1,47.888h5.741L59.759,23.172a12.025,12.025,0,0,0,2.009-5.007,11.879,11.879,0,0,0-.446-5.39Z" transform="translate(42.296 -0.56)" fill="#e05555"/><path d="M69.944,47.888h5.167L54.285.56h-.734L32.79,47.888h5.549c.191-1.148.415-2.264.606-3.285.191-1.052.446-2.137.734-3.253s.606-2.328.925-3.6c.159-.7.351-1.371.542-2.009H64.618C66.915,40.967,69.944,47.888,69.944,47.888ZM41.465,34.525c.8-2.743,1.658-4.975,2.1-6.155.606-1.627,1.371-3.54,2.264-5.709s1.882-4.529,3-7.08c1.116-2.583,2.3-5.23,3.572-7.973L62.258,30.22c.287.67.989,2.3,1.85,4.305Z" transform="translate(71.784 -0.56)" fill="#e05555"/></g></svg>