<svg xmlns="http://www.w3.org/2000/svg" xmlns:xlink="http://www.w3.org/1999/xlink" width="16.893" height="17" viewBox="0 0 16.893 17">
  <defs>
    <clipPath id="clip-path">
      <path id="Caminho_322" data-name="Caminho 322" d="M0,0H16.893V-17H0Z" fill="#253825"/>
    </clipPath>
  </defs>
  <g id="Instagram" transform="translate(0 17)">
    <g id="Grupo_123" data-name="Grupo 123" clip-path="url(#clip-path)">
      <g id="Grupo_120" data-name="Grupo 120" transform="translate(8.447 -12.922)">
        <path id="Caminho_319" data-name="Caminho 319" d="M0,0A4.382,4.382,0,0,0-4.36,4.387,4.36,4.36,0,0,0,0,8.774,4.382,4.382,0,0,0,4.36,4.387,4.4,4.4,0,0,0,0,0M0,7.2A2.814,2.814,0,0,1-2.793,4.387,2.814,2.814,0,0,1,0,1.577a2.814,2.814,0,0,1,2.793,2.81A2.814,2.814,0,0,1,0,7.2" fill="#253825"/>
      </g>
      <g id="Grupo_121" data-name="Grupo 121" transform="translate(12.976 -14.018)">
        <path id="Caminho_320" data-name="Caminho 320" d="M0,0A.991.991,0,0,1,.988.994.991.991,0,0,1,0,1.988.994.994,0,0,1,0,0" fill="#253825"/>
      </g>
      <g id="Grupo_122" data-name="Grupo 122" transform="translate(15.531 -15.595)">
        <path id="Caminho_321" data-name="Caminho 321" d="M0,0A4.837,4.837,0,0,0-3.576-1.4h-7.016a4.681,4.681,0,0,0-4.939,4.97v7.026A4.946,4.946,0,0,0-14.1,14.258,4.951,4.951,0,0,0-10.558,15.6H-3.61A5.012,5.012,0,0,0-.034,14.258a4.921,4.921,0,0,0,1.4-3.633V3.565A4.928,4.928,0,0,0,0,0M-.2,10.625a3.321,3.321,0,0,1-.92,2.5,3.5,3.5,0,0,1-2.486.891h-6.948a3.507,3.507,0,0,1-2.487-.891,3.458,3.458,0,0,1-.919-2.536V3.565a3.43,3.43,0,0,1,.919-2.5A3.455,3.455,0,0,1-10.558.171h7.016A3.382,3.382,0,0,1-1.056,1.1a3.55,3.55,0,0,1,.92,2.468v7.06Z" fill="#253825"/>
      </g>
    </g>
  </g>
</svg>
