<svg xmlns="http://www.w3.org/2000/svg" xmlns:xlink="http://www.w3.org/1999/xlink" width="13.506" height="17.447" viewBox="0 0 13.506 17.447">
  <defs>
    <clipPath id="clip-path">
      <path id="Caminho_337" data-name="Caminho 337" d="M0,0H13.506V-17.447H0Z" fill="#253825"/>
    </clipPath>
  </defs>
  <g id="Pinterest" transform="translate(0 17.447)">
    <g id="Grupo_142" data-name="Grupo 142" clip-path="url(#clip-path)">
      <g id="Grupo_141" data-name="Grupo 141" transform="translate(7.162 -17.447)">
        <path id="Caminho_336" data-name="Caminho 336" d="M0,0C-4.761,0-7.162,3.413-7.162,6.261c0,1.723.652,3.256,2.052,3.827a.344.344,0,0,0,.5-.25c.047-.176.156-.619.205-.805a.486.486,0,0,0-.144-.558A2.887,2.887,0,0,1-5.21,6.51,4.746,4.746,0,0,1-.276,1.71c2.691,0,4.17,1.645,4.17,3.84,0,2.89-1.279,5.329-3.177,5.329A1.551,1.551,0,0,1-.865,8.949,21.532,21.532,0,0,0,.02,5.392a1.342,1.342,0,0,0-1.352-1.5C-2.4,3.888-3.265,5-3.265,6.482a3.853,3.853,0,0,0,.32,1.586s-1.1,4.647-1.289,5.46a11.255,11.255,0,0,0-.03,3.808.134.134,0,0,0,.239.058,10.716,10.716,0,0,0,1.809-3.28c.123-.445.7-2.754.7-2.754A2.873,2.873,0,0,0,.937,12.608c3.221,0,5.407-2.936,5.407-6.867C6.344,2.768,3.826,0,0,0" fill="#253825"/>
      </g>
    </g>
  </g>
</svg>
