<svg xmlns="http://www.w3.org/2000/svg" xmlns:xlink="http://www.w3.org/1999/xlink" width="17.964" height="13.607" viewBox="0 0 17.964 13.607">
  <defs>
    <clipPath id="clip-path">
      <path id="Caminho_339" data-name="Caminho 339" d="M0,0H17.964V-13.607H0Z" fill="#253825"/>
    </clipPath>
  </defs>
  <g id="Twitter" transform="translate(0 13.607)">
    <g id="Grupo_145" data-name="Grupo 145" clip-path="url(#clip-path)">
      <g id="Grupo_144" data-name="Grupo 144" transform="translate(17.964 -11.996)">
        <path id="Caminho_338" data-name="Caminho 338" d="M0,0A7.8,7.8,0,0,1-2.117.541,3.5,3.5,0,0,0-.5-1.36a7.7,7.7,0,0,1-2.341.834,3.813,3.813,0,0,0-2.69-1.085A3.567,3.567,0,0,0-9.212,1.824a3.21,3.21,0,0,0,.1.783,10.728,10.728,0,0,1-7.6-3.589,3.243,3.243,0,0,0-.5,1.727A3.378,3.378,0,0,0-15.573,3.6a3.869,3.869,0,0,1-1.669-.43v.044a3.508,3.508,0,0,0,2.956,3.368,3.967,3.967,0,0,1-.971.12,3.943,3.943,0,0,1-.693-.061A3.667,3.667,0,0,0-12.508,9.03,7.737,7.737,0,0,1-17.085,10.5a8.22,8.22,0,0,1-.879-.048A11,11,0,0,0-12.314,12,10.055,10.055,0,0,0-1.828,2.223c0-.149,0-.3-.011-.445A7.22,7.22,0,0,0,0,0" fill="#253825"/>
      </g>
    </g>
  </g>
</svg>
