<svg xmlns="http://www.w3.org/2000/svg" xmlns:xlink="http://www.w3.org/1999/xlink" width="17.378" height="16.998" viewBox="0 0 17.378 16.998">
  <defs>
    <clipPath id="clip-path">
      <path id="Caminho_331" data-name="Caminho 331" d="M0,0H17.378V-17H0Z" fill="#253825"/>
    </clipPath>
  </defs>
  <g id="YouTube" transform="translate(0 16.998)">
    <g id="Grupo_135" data-name="Grupo 135" clip-path="url(#clip-path)">
      <g id="Grupo_132" data-name="Grupo 132" transform="translate(14.204 -8.902)">
        <path id="Caminho_328" data-name="Caminho 328" d="M0,0H-11.029A3.176,3.176,0,0,0-14.2,3.175V5.727A3.175,3.175,0,0,0-11.029,8.9H0A3.175,3.175,0,0,0,3.174,5.727V3.175A3.175,3.175,0,0,0,0,0M-8.712,1.986H-9.738V7.081h-.99V1.986h-1.025V1.12h3.041Zm2.9,5.095h-.878V6.6a1.858,1.858,0,0,1-.508.406,1.056,1.056,0,0,1-.51.141.548.548,0,0,1-.46-.2.946.946,0,0,1-.154-.589V2.683h.879V6.057a.375.375,0,0,0,.054.225.216.216,0,0,0,.181.07.5.5,0,0,0,.245-.092,1.186,1.186,0,0,0,.273-.237V2.682h.878Zm3.191-.908a1.1,1.1,0,0,1-.207.716.73.73,0,0,1-.6.249,1.054,1.054,0,0,1-.46-.1,1.135,1.135,0,0,1-.376-.3v.337h-.889V1.12h.889V3.04a1.372,1.372,0,0,1,.376-.305.862.862,0,0,1,.406-.1.76.76,0,0,1,.637.28,1.314,1.314,0,0,1,.221.822V6.173ZM.423,4.988H-1.259v.829a.948.948,0,0,0,.086.481.328.328,0,0,0,.3.134.364.364,0,0,0,.306-.114.944.944,0,0,0,.087-.5v-.2H.423v.225a1.411,1.411,0,0,1-.332,1.02,1.311,1.311,0,0,1-.986.34,1.212,1.212,0,0,1-.931-.362,1.4,1.4,0,0,1-.34-1V3.867a1.242,1.242,0,0,1,.375-.933,1.324,1.324,0,0,1,.962-.36A1.232,1.232,0,0,1,.1,2.908a1.322,1.322,0,0,1,.324.959Z" fill="#253825"/>
      </g>
      <g id="Grupo_133" data-name="Grupo 133" transform="translate(13.337 -5.558)">
        <path id="Caminho_329" data-name="Caminho 329" d="M0,0A.347.347,0,0,0-.3.122.634.634,0,0,0-.393.516V.96H.384V.516A.646.646,0,0,0,.292.122.338.338,0,0,0,0,0" fill="#253825"/>
      </g>
      <g id="Grupo_134" data-name="Grupo 134" transform="translate(10.306 -5.573)">
        <path id="Caminho_330" data-name="Caminho 330" d="M0,0A.432.432,0,0,0-.186.043.6.6,0,0,0-.367.177v2.74a.758.758,0,0,0,.208.157.52.52,0,0,0,.212.047.286.286,0,0,0,.238-.094.485.485,0,0,0,.075-.3V.452A.522.522,0,0,0,.274.114.339.339,0,0,0,0,0" fill="#253825"/>
      </g>
    </g>
    <g id="Grupo_136" data-name="Grupo 136" transform="translate(5.897 -16.997)">
      <path id="Caminho_332" data-name="Caminho 332" d="M0,0-.689,2.625H-.76L-1.483,0H-2.605l1.327,3.965v2.6H-.165V3.843L1.133,0Z" fill="#253825"/>
    </g>
    <g id="Grupo_139" data-name="Grupo 139" clip-path="url(#clip-path)">
      <g id="Grupo_137" data-name="Grupo 137" transform="translate(8.539 -10.307)">
        <path id="Caminho_333" data-name="Caminho 333" d="M0,0A1.507,1.507,0,0,0,1.06-.354a1.26,1.26,0,0,0,.383-.975v-2.5a1.166,1.166,0,0,0-.391-.907A1.46,1.46,0,0,0,.045-5.09a1.626,1.626,0,0,0-1.075.334,1.106,1.106,0,0,0-.4.9v2.512a1.283,1.283,0,0,0,.389.982A1.459,1.459,0,0,0,0,0M-.41-3.9A.328.328,0,0,1-.3-4.153a.439.439,0,0,1,.3-.1.492.492,0,0,1,.318.1.317.317,0,0,1,.12.257v2.64A.4.4,0,0,1,.316-.95.447.447,0,0,1,0-.839a.4.4,0,0,1-.3-.11.426.426,0,0,1-.106-.308V-3.9Z" fill="#253825"/>
      </g>
      <g id="Grupo_138" data-name="Grupo 138" transform="translate(11.476 -10.359)">
        <path id="Caminho_334" data-name="Caminho 334" d="M0,0A1.248,1.248,0,0,0,.574-.155a2.126,2.126,0,0,0,.57-.452v.536h.989V-4.916H1.144v3.678a1.351,1.351,0,0,1-.305.26.574.574,0,0,1-.276.1.239.239,0,0,1-.2-.078A.4.4,0,0,1,.3-1.2V-4.916H-.691v4.05a1.026,1.026,0,0,0,.173.647A.622.622,0,0,0,0,0" fill="#253825"/>
      </g>
    </g>
  </g>
</svg>
